<svg viewBox="0 0 342.85155851775386 342.85155851775386" height="342.85155851775386" width="342.85155851775386" data-background-color="#ffffff" preserveAspectRatio="xMidYMid meet" id="tight-bounds" xmlns="http://www.w3.org/2000/svg" xmlns:xlink="http://www.w3.org/1999/xlink"><g><svg></svg></g><g><svg viewBox="0 0 342.85155851775386 342.85155851775386" height="342.85155851775386" width="342.85155851775386"><g><path d="M0 171.426c0-94.676 76.75-171.426 171.426-171.426 94.676 0 171.426 76.75 171.426 171.426 0 94.676-76.75 171.426-171.426 171.426-94.676 0-171.426-76.75-171.426-171.426zM171.426 340.145c93.181 0 168.72-75.538 168.719-168.719 0-93.181-75.538-168.72-168.719-168.72-93.181 0-168.72 75.538-168.72 168.72 0 93.181 75.538 168.72 168.72 168.719z" data-fill-palette-color="tertiary" fill="#d7dbde" stroke="transparent"></path><ellipse rx="164.56874808852186" ry="164.56874808852186" cx="171.42577925887693" cy="171.42577925887693" fill="#d7dbde" stroke="transparent" stroke-width="0" fill-opacity="1" data-fill-palette-color="tertiary"></ellipse></g><g transform="matrix(1,0,0,1,64.84655864529837,132.1429916075065)"><svg viewBox="0 0 213.1584412271571 78.56557530274084" height="78.56557530274084" width="213.1584412271571"><g><svg viewBox="0 0 213.1584412271571 78.56557530274084" height="78.56557530274084" width="213.1584412271571"><g><svg viewBox="0 0 213.1584412271571 78.56557530274084" height="78.56557530274084" width="213.1584412271571"><g transform="matrix(1,0,0,1,0,48.55667743165503)"><svg viewBox="0 0 213.1584412271571 30.008897871085804" height="30.008897871085804" width="213.1584412271571"><g id="textblocktransform"><svg viewBox="0 0 213.1584412271571 30.008897871085804" height="30.008897871085804" width="213.1584412271571" id="textblock"><g><svg viewBox="0 0 213.1584412271571 30.008897871085804" height="30.008897871085804" width="213.1584412271571"><g transform="matrix(1,0,0,1,0,0)"><svg width="213.1584412271571" viewBox="0.42000001668930054 -33.33000183105469 310.72998046875 43.75" height="30.008897871085804" data-palette-color="#ffffff"><path d="M19.72-19.24L12.47 1.04 0.42-31.25 4.44-31.25 11.53-12.5Q11.91-11.53 12.15-10.64 12.4-9.76 12.67-8.54L12.67-8.54Q12.95-9.76 13.21-10.64 13.47-11.53 13.82-12.5L13.82-12.5 20.97-32.29 28.09-12.5Q28.4-11.63 28.7-10.75 28.99-9.86 29.24-8.54L29.24-8.54Q29.51-9.86 29.79-10.75 30.07-11.63 30.42-12.5L30.42-12.5 37.5-31.25 41.25-31.25 29.24 1.04 22.01-19.24Q21.7-20.14 21.42-20.99 21.15-21.84 20.87-23.16L20.87-23.16Q20.59-21.84 20.31-20.99 20.03-20.14 19.72-19.24L19.72-19.24ZM54.93 0.42L54.93 0.42Q51.66 0.42 49.08-1.04 46.49-2.5 45.01-5.02 43.54-7.53 43.54-10.63L43.54-10.63Q43.54-13.58 44.96-15.99 46.39-18.4 48.8-19.83 51.21-21.25 54.13-21.25L54.13-21.25Q57.01-21.25 59.41-19.88 61.8-18.51 63.23-16.18 64.65-13.85 64.65-10.9L64.65-10.9 64.65-9.38 51.04-9.38Q50.14-9.38 49.2-9.44 48.26-9.51 47.36-9.65L47.36-9.65Q47.74-6.88 49.88-5 52.01-3.13 54.96-3.13L54.96-3.13Q56.94-3.13 58.64-4.03 60.34-4.93 61.39-6.42L61.39-6.42 62.43-2.15Q60.94-0.94 59.01-0.26 57.08 0.42 54.93 0.42ZM47.25-12.19L47.25-12.19Q49.13-12.5 51.04-12.5L51.04-12.5 57.95-12.5Q58.71-12.5 59.46-12.45 60.21-12.4 60.97-12.33L60.97-12.33Q60.48-14.76 58.54-16.34 56.59-17.92 54.13-17.92L54.13-17.92Q51.59-17.92 49.69-16.23 47.78-14.55 47.25-12.19ZM78.57 0.28L78.57 0.28Q75.72 0.28 73.36-1.16 71-2.6 69.6-5.03 68.19-7.47 68.19-10.42L68.19-10.42Q68.19-13.37 69.6-15.8 71-18.23 73.36-19.67 75.72-21.11 78.57-21.11L78.57-21.11Q80.72-21.11 82.62-20.31 84.51-19.51 85.9-18.09L85.9-18.09 85.9-20.83 89.37-20.83 89.37 0 85.9 0 85.9-2.74Q84.51-1.35 82.62-0.54 80.72 0.28 78.57 0.28ZM79.06-3.13L79.06-3.13Q81.04-3.13 82.65-4.11 84.27-5.1 85.22-6.75 86.18-8.4 86.18-10.42L86.18-10.42Q86.18-12.43 85.22-14.08 84.27-15.73 82.65-16.72 81.04-17.71 79.06-17.71L79.06-17.71Q77.08-17.71 75.46-16.72 73.85-15.73 72.89-14.08 71.94-12.43 71.94-10.42L71.94-10.42Q71.94-8.4 72.89-6.75 73.85-5.1 75.46-4.11 77.08-3.13 79.06-3.13ZM102.21 0L98.46 0 98.46-17.71 93.74-17.71 93.74-20.83 98.57-20.83 98.57-27.78 102.11-27.78 102.11-20.83 107.28-20.83 107.28-17.71 102.21-17.71 102.21 0ZM115.41 0L111.66 0 111.66-33.33 115.41-33.33 115.41-17.88Q116.59-19.51 118.32-20.38 120.06-21.25 122.04-21.25L122.04-21.25Q124.26-21.25 126.15-20.16 128.05-19.06 129.23-17 130.41-14.93 130.41-11.98L130.41-11.98 130.41 0 126.66 0 126.66-11.46Q126.66-13.92 125.18-15.82 123.71-17.71 121.03-17.71L121.03-17.71Q118.84-17.71 117.13-16.13 115.41-14.55 115.41-11.56L115.41-11.56 115.41 0ZM146.58 0.42L146.58 0.42Q143.32 0.42 140.73-1.04 138.15-2.5 136.67-5.02 135.2-7.53 135.2-10.63L135.2-10.63Q135.2-13.58 136.62-15.99 138.04-18.4 140.46-19.83 142.87-21.25 145.79-21.25L145.79-21.25Q148.67-21.25 151.06-19.88 153.46-18.51 154.88-16.18 156.31-13.85 156.31-10.9L156.31-10.9 156.31-9.38 142.7-9.38Q141.79-9.38 140.86-9.44 139.92-9.51 139.02-9.65L139.02-9.65Q139.4-6.88 141.53-5 143.67-3.13 146.62-3.13L146.62-3.13Q148.6-3.13 150.3-4.03 152-4.93 153.04-6.42L153.04-6.42 154.08-2.15Q152.59-0.94 150.66-0.26 148.74 0.42 146.58 0.42ZM138.91-12.19L138.91-12.19Q140.79-12.5 142.7-12.5L142.7-12.5 149.61-12.5Q150.37-12.5 151.12-12.45 151.86-12.4 152.63-12.33L152.63-12.33Q152.14-14.76 150.2-16.34 148.25-17.92 145.79-17.92L145.79-17.92Q143.25-17.92 141.34-16.23 139.43-14.55 138.91-12.19ZM165.05 0L161.3 0 161.3-20.83 164.78-20.83 164.78-17.01Q165.89-18.85 167.73-19.95 169.57-21.04 172.1-21.04L172.1-21.04 173.04-17.29Q172.38-17.5 171.51-17.5L171.51-17.5Q168.6-17.5 166.83-15.64 165.05-13.78 165.05-10.35L165.05-10.35 165.05 0ZM184.7 0.42L184.7 0.42Q181.93 0.42 179.69-0.69 177.45-1.81 176.13-3.4L176.13-3.4 177.27-8.19Q178.25-6.25 180.19-4.69 182.14-3.13 184.84-3.13L184.84-3.13Q187.31-3.13 188.92-4.69 190.54-6.25 190.54-8.54L190.54-8.54Q190.54-10.21 189.74-11.28 188.94-12.36 187.93-12.99 186.93-13.61 186.34-13.89L186.34-13.89 182.52-15.83Q181.61-16.32 180.28-17.19 178.94-18.06 177.93-19.58 176.93-21.11 176.93-23.54L176.93-23.54Q176.93-25.9 178.02-27.74 179.11-29.58 181.08-30.63 183.04-31.67 185.57-31.67L185.57-31.67Q188.07-31.67 189.98-30.78 191.89-29.9 192.97-28.96L192.97-28.96 191.82-24.17Q190.95-25.63 189.25-26.91 187.55-28.19 185.4-28.19L185.4-28.19Q183.32-28.19 182.07-26.96 180.82-25.73 180.82-23.92L180.82-23.92Q180.82-22.53 181.46-21.63 182.1-20.73 182.92-20.21 183.73-19.69 184.25-19.41L184.25-19.41 188.14-17.47Q188.84-17.12 189.9-16.49 190.95-15.87 192-14.84 193.04-13.82 193.73-12.34 194.43-10.87 194.43-8.78L194.43-8.78Q194.43-6.11 193.16-4.03 191.89-1.94 189.7-0.76 187.52 0.42 184.7 0.42ZM203.59 10.42L199.84 10.42 199.84-20.83 203.31-20.83 203.31-18.09Q204.74-19.51 206.61-20.31 208.49-21.11 210.64-21.11L210.64-21.11Q213.52-21.11 215.87-19.67 218.21-18.23 219.62-15.8 221.02-13.37 221.02-10.42L221.02-10.42Q221.02-7.47 219.62-5.03 218.21-2.6 215.87-1.16 213.52 0.28 210.64 0.28L210.64 0.28Q208.59 0.28 206.79-0.45 204.98-1.18 203.59-2.47L203.59-2.47 203.59 10.42ZM210.15-3.13L210.15-3.13Q212.13-3.13 213.75-4.11 215.36-5.1 216.32-6.75 217.27-8.4 217.27-10.42L217.27-10.42Q217.27-12.43 216.32-14.08 215.36-15.73 213.75-16.72 212.13-17.71 210.15-17.71L210.15-17.71Q208.17-17.71 206.56-16.72 204.95-15.73 203.99-14.08 203.04-12.43 203.04-10.42L203.04-10.42Q203.04-8.4 203.99-6.75 204.95-5.1 206.56-4.11 208.17-3.13 210.15-3.13ZM229.98 0L226.23 0 226.23-33.33 229.98-33.33 229.98-17.88Q231.16-19.51 232.89-20.38 234.63-21.25 236.61-21.25L236.61-21.25Q238.83-21.25 240.72-20.16 242.62-19.06 243.8-17 244.98-14.93 244.98-11.98L244.98-11.98 244.98 0 241.23 0 241.23-11.46Q241.23-13.92 239.75-15.82 238.28-17.71 235.6-17.71L235.6-17.71Q233.42-17.71 231.7-16.13 229.98-14.55 229.98-11.56L229.98-11.56 229.98 0ZM261.16 0.42L261.16 0.42Q257.89 0.42 255.3-1.04 252.72-2.5 251.24-5.02 249.77-7.53 249.77-10.63L249.77-10.63Q249.77-13.58 251.19-15.99 252.61-18.4 255.03-19.83 257.44-21.25 260.36-21.25L260.36-21.25Q263.24-21.25 265.63-19.88 268.03-18.51 269.45-16.18 270.88-13.85 270.88-10.9L270.88-10.9 270.88-9.38 257.27-9.38Q256.36-9.38 255.43-9.44 254.49-9.51 253.59-9.65L253.59-9.65Q253.97-6.88 256.1-5 258.24-3.13 261.19-3.13L261.19-3.13Q263.17-3.13 264.87-4.03 266.57-4.93 267.61-6.42L267.61-6.42 268.66-2.15Q267.16-0.94 265.24-0.26 263.31 0.42 261.16 0.42ZM253.48-12.19L253.48-12.19Q255.36-12.5 257.27-12.5L257.27-12.5 264.18-12.5Q264.94-12.5 265.69-12.45 266.43-12.4 267.2-12.33L267.2-12.33Q266.71-14.76 264.77-16.34 262.82-17.92 260.36-17.92L260.36-17.92Q257.82-17.92 255.91-16.23 254-14.55 253.48-12.19ZM279.63 0L275.88 0 275.88-20.83 279.35-20.83 279.35-17.01Q280.46-18.85 282.3-19.95 284.14-21.04 286.67-21.04L286.67-21.04 287.61-17.29Q286.95-17.5 286.08-17.5L286.08-17.5Q283.17-17.5 281.4-15.64 279.63-13.78 279.63-10.35L279.63-10.35 279.63 0ZM301.43 0.42L301.43 0.42Q298.16 0.42 295.58-1.04 292.99-2.5 291.52-5.02 290.04-7.53 290.04-10.63L290.04-10.63Q290.04-13.58 291.46-15.99 292.89-18.4 295.3-19.83 297.71-21.25 300.63-21.25L300.63-21.25Q303.51-21.25 305.91-19.88 308.3-18.51 309.73-16.18 311.15-13.85 311.15-10.9L311.15-10.9 311.15-9.38 297.54-9.38Q296.64-9.38 295.7-9.44 294.76-9.51 293.86-9.65L293.86-9.65Q294.24-6.88 296.38-5 298.51-3.13 301.46-3.13L301.46-3.13Q303.44-3.13 305.14-4.03 306.85-4.93 307.89-6.42L307.89-6.42 308.93-2.15Q307.44-0.94 305.51-0.26 303.58 0.42 301.43 0.42ZM293.75-12.19L293.75-12.19Q295.63-12.5 297.54-12.5L297.54-12.5 304.45-12.5Q305.21-12.5 305.96-12.45 306.71-12.4 307.47-12.33L307.47-12.33Q306.98-14.76 305.04-16.34 303.1-17.92 300.63-17.92L300.63-17.92Q298.1-17.92 296.19-16.23 294.28-14.55 293.75-12.19Z" opacity="1" transform="matrix(1,0,0,1,0,0)" fill="#ffffff" class="wordmark-text-0" data-fill-palette-color="quaternary" id="text-0"></path></svg></g></svg></g></svg></g></svg></g><g transform="matrix(1,0,0,1,84.86075524375066,0)"><svg viewBox="0 0 43.436930739655786 41.47229685784058" height="41.47229685784058" width="43.436930739655786"><g><svg xmlns="http://www.w3.org/2000/svg" xmlns:xlink="http://www.w3.org/1999/xlink" version="1.1" x="0" y="0" viewBox="0 2.260999917984009 100.0009994506836 95.47799682617188" enable-background="new 0 0 100 100" xml:space="preserve" height="41.47229685784058" width="43.436930739655786" class="icon-icon-0" data-fill-palette-color="quaternary" id="icon-0"><g fill="#ffffff" data-fill-palette-color="quaternary"><path d="M58.585 35.762L65.06 36.16 59.023 38.541A27 27 0 0 0 58.585 35.762M57.405 31.785L63.86 31.166 58.273 34.459A26 26 0 0 0 57.405 31.785M55.613 28.042L61.895 26.42 56.891 30.547A26 26 0 0 0 55.613 28.042M53.269 24.641L67.138 17.415 55.206 27.365A26 26 0 0 0 53.269 24.641M49.974 21.247L72.151 2.261 52.765 24.038A27 27 0 0 0 49.974 21.247M46.745 18.867L58.179 5.559 49.489 20.84A26 26 0 0 0 46.745 18.867M43.464 17.119L49.753 7.788 45.969 18.397A27 27 0 0 0 43.464 17.119M39.552 15.738L43.558 7.922 42.227 16.606A26 26 0 0 0 39.552 15.738M35.471 14.989L37.852 8.951 38.249 15.426A26 26 0 0 0 35.471 14.989M31.323 14.886L32.731 8.549 34.138 14.886A27 27 0 0 0 31.323 14.886M27.212 15.426L27.61 8.951 29.991 14.989A27 27 0 0 0 27.212 15.426M23.235 16.606L22.616 10.151 25.91 15.738C24.999 15.98 24.106 16.271 23.235 16.606M19.493 18.398L17.872 12.116 21.999 17.119C21.138 17.502 20.302 17.929 19.493 18.398M16.078 20.754L13.492 14.8 18.353 19.098A27 27 0 0 0 16.078 20.754M13.073 23.612L9.587 18.135 15.064 21.621A27 27 0 0 0 13.073 23.612M10.549 26.903L6.251 22.041 12.205 24.627A27 27 0 0 0 10.549 26.903M8.57 30.547L3.567 26.42 9.848 28.042A27 27 0 0 0 8.57 30.547M7.188 34.459L1.602 31.165 8.057 31.784A27 27 0 0 0 7.188 34.459M6.44 38.541L0.403 36.16 6.878 35.761C6.685 36.671 6.538 37.599 6.44 38.541M6.337 42.688L0 41.28 6.337 39.872A26 26 0 0 0 6.337 42.688M6.878 46.799L0.403 46.4 6.44 44.02C6.538 44.961 6.685 45.889 6.878 46.799M8.058 50.775L1.602 51.394 7.189 48.1C7.432 49.013 7.722 49.905 8.058 50.775M9.849 54.518L3.567 56.14 8.57 52.013C8.952 52.873 9.38 53.709 9.849 54.518M9.483 56.862L10.548 55.657C10.637 55.795 10.728 55.931 10.819 56.066 10.36 56.311 9.914 56.576 9.483 56.862" fill="#ffffff" data-fill-palette-color="quaternary"></path><path d="M9.914 41.28C9.914 28.678 20.13 18.463 32.731 18.463 45.17 18.463 55.284 28.417 55.543 40.794A22.7 22.7 0 0 0 48.554 45.794 20.2 20.2 0 0 0 42.628 44.912C34.829 44.912 28.066 49.321 24.686 55.78A15.4 15.4 0 0 0 18.038 54.28 15.5 15.5 0 0 0 14.303 54.735 22.7 22.7 0 0 1 9.914 41.28" fill="#ffffff" data-fill-palette-color="quaternary"></path><path d="M83.893 59.657A10.96 10.96 0 0 1 88.992 58.408C95.072 58.408 100.001 63.336 100.001 69.417 100.001 71.146 99.603 72.781 98.893 74.238H79.091L79.042 74.136 78.95 74.238H7.092A11.8 11.8 0 0 1 6.205 69.735C6.205 63.201 11.503 57.903 18.037 57.903 21.321 57.903 24.292 59.241 26.436 61.401 28.135 54.03 34.741 48.534 42.627 48.534 45.143 48.534 47.527 49.093 49.664 50.093 53.126 45.406 58.689 42.366 64.963 42.366 74.882 42.367 83.026 49.964 83.893 59.657" fill="#ffffff" data-fill-palette-color="quaternary"></path><path fill-rule="evenodd" clip-rule="evenodd" d="M52.361 78.836C52.703 77.696 55.922 73.659 55.976 73.659 55.996 73.659 56.829 77.696 56.487 78.836S54.944 80.898 53.805 80.898 52.02 79.975 52.361 78.836" fill="#ffffff" data-fill-palette-color="quaternary"></path><path fill-rule="evenodd" clip-rule="evenodd" d="M57.251 84.268C57.593 83.129 60.812 79.092 60.866 79.092 60.886 79.092 61.718 83.129 61.376 84.268S59.833 86.331 58.694 86.331 56.909 85.407 57.251 84.268" fill="#ffffff" data-fill-palette-color="quaternary"></path><path fill-rule="evenodd" clip-rule="evenodd" d="M65.399 78.836C65.741 77.696 68.96 73.659 69.014 73.659 69.034 73.659 69.866 77.696 69.524 78.836S67.982 80.898 66.842 80.898C65.704 80.898 65.058 79.975 65.399 78.836" fill="#ffffff" data-fill-palette-color="quaternary"></path><path fill-rule="evenodd" clip-rule="evenodd" d="M70.288 84.268C70.63 83.129 73.849 79.092 73.904 79.092 73.924 79.092 74.756 83.129 74.414 84.268S72.872 86.331 71.732 86.331 69.946 85.407 70.288 84.268" fill="#ffffff" data-fill-palette-color="quaternary"></path><path fill-rule="evenodd" clip-rule="evenodd" d="M78.438 78.836C78.78 77.696 81.999 73.659 82.054 73.659 82.074 73.659 82.906 77.696 82.564 78.836S81.021 80.898 79.882 80.898 78.096 79.975 78.438 78.836" fill="#ffffff" data-fill-palette-color="quaternary"></path><path fill-rule="evenodd" clip-rule="evenodd" d="M83.327 84.268C83.669 83.129 86.888 79.092 86.942 79.092 86.962 79.092 87.794 83.129 87.452 84.268S85.91 86.331 84.77 86.331C83.632 86.331 82.985 85.407 83.327 84.268" fill="#ffffff" data-fill-palette-color="quaternary"></path><path fill-rule="evenodd" clip-rule="evenodd" d="M91.476 78.836C91.818 77.696 95.037 73.659 95.091 73.659 95.111 73.659 95.943 77.696 95.602 78.836 95.26 79.975 94.06 80.898 92.92 80.898S91.134 79.975 91.476 78.836" fill="#ffffff" data-fill-palette-color="quaternary"></path><path fill-rule="evenodd" clip-rule="evenodd" d="M53.828 95.676C54.17 94.537 57.389 90.5 57.444 90.5 57.463 90.5 58.295 94.537 57.954 95.676 57.612 96.817 56.411 97.739 55.272 97.739S53.486 96.816 53.828 95.676" fill="#ffffff" data-fill-palette-color="quaternary"></path><path fill-rule="evenodd" clip-rule="evenodd" d="M61.978 90.244C62.32 89.104 65.539 85.068 65.593 85.068 65.613 85.068 66.445 89.104 66.103 90.244 65.761 91.383 64.56 92.306 63.421 92.306S61.635 91.383 61.978 90.244" fill="#ffffff" data-fill-palette-color="quaternary"></path><path fill-rule="evenodd" clip-rule="evenodd" d="M66.866 95.676C67.208 94.537 70.427 90.5 70.481 90.5 70.501 90.5 71.333 94.537 70.991 95.676 70.649 96.817 69.449 97.739 68.309 97.739 67.171 97.739 66.524 96.816 66.866 95.676" fill="#ffffff" data-fill-palette-color="quaternary"></path><path fill-rule="evenodd" clip-rule="evenodd" d="M75.015 90.244C75.357 89.104 78.576 85.068 78.631 85.068 78.651 85.068 79.483 89.104 79.141 90.244 78.799 91.383 77.599 92.306 76.459 92.306S74.673 91.383 75.015 90.244" fill="#ffffff" data-fill-palette-color="quaternary"></path><path fill-rule="evenodd" clip-rule="evenodd" d="M79.904 95.676C80.246 94.537 83.465 90.5 83.52 90.5 83.54 90.5 84.372 94.537 84.03 95.676 83.688 96.817 82.487 97.739 81.348 97.739S79.562 96.816 79.904 95.676" fill="#ffffff" data-fill-palette-color="quaternary"></path><path fill-rule="evenodd" clip-rule="evenodd" d="M88.054 90.244C88.396 89.104 91.615 85.068 91.669 85.068 91.689 85.068 92.521 89.104 92.179 90.244 91.837 91.383 90.636 92.306 89.497 92.306S87.712 91.383 88.054 90.244" fill="#ffffff" data-fill-palette-color="quaternary"></path><path fill-rule="evenodd" clip-rule="evenodd" d="M95.223 42.765L93.278 42.422 94.828 41.337C95.447 40.903 95.598 40.05 95.164 39.431L95.092 39.328A1.37 1.37 0 0 0 93.186 38.992L89.191 41.789 85.567 41.15 88.122 38.314 92.993 38.059A1.37 1.37 0 0 0 94.288 36.621L94.281 36.496A1.37 1.37 0 0 0 92.843 35.201L90.954 35.3 92.276 33.832A1.37 1.37 0 0 0 92.174 31.899L92.08 31.816 92.016 31.758A1.37 1.37 0 0 0 90.083 31.859L88.732 33.359 88.627 31.347A1.37 1.37 0 0 0 87.189 30.052L87.064 30.058A1.37 1.37 0 0 0 85.768 31.496L86.023 36.367 83.168 39.537 81.57 35.581 83.476 31.092A1.37 1.37 0 0 0 82.75 29.297L82.635 29.248A1.37 1.37 0 0 0 80.84 29.973L80.053 31.827 79.297 29.956A1.37 1.37 0 0 0 77.515 29.2L77.4 29.247H77.399L77.319 29.28A1.37 1.37 0 0 0 76.562 31.062L77.302 32.894 75.562 32.155A1.37 1.37 0 0 0 73.767 32.88L73.718 32.995C73.422 33.691 73.747 34.495 74.443 34.789L78.932 36.695 80.362 40.234 76.318 39.521 73.521 35.526A1.37 1.37 0 0 0 71.614 35.19L71.511 35.262A1.37 1.37 0 0 0 71.175 37.168L72.33 38.818 70.343 38.467A1.37 1.37 0 0 0 68.757 39.577L68.735 39.7V39.701L68.719 39.786A1.37 1.37 0 0 0 69.83 41.371L71.775 41.714 70.225 42.799A1.37 1.37 0 0 0 69.889 44.705L69.96 44.808C70.394 45.427 71.247 45.578 71.866 45.144L75.862 42.347 79.981 43.074 77.274 46.079 72.404 46.334A1.37 1.37 0 0 0 71.108 47.772L71.115 47.897C71.155 48.652 71.799 49.232 72.553 49.192L74.442 49.093 73.12 50.561A1.37 1.37 0 0 0 73.222 52.494L73.316 52.578C73.877 53.084 74.743 53.038 75.249 52.476L76.658 50.912 76.769 53.046A1.37 1.37 0 0 0 78.207 54.342L78.332 54.334A1.37 1.37 0 0 0 79.628 52.896L79.372 48.025 82.227 44.854 83.826 48.811 81.921 53.301A1.37 1.37 0 0 0 82.646 55.096L82.761 55.145C83.456 55.44 84.261 55.116 84.556 54.419L85.391 52.451 86.179 54.403C86.462 55.103 87.261 55.443 87.962 55.16L88.077 55.113A1.37 1.37 0 0 0 88.833 53.331L88.093 51.499 89.835 52.238A1.37 1.37 0 0 0 91.63 51.513L91.679 51.398A1.37 1.37 0 0 0 90.953 49.603L86.464 47.697 84.948 43.947 88.733 44.614 91.531 48.609C91.965 49.228 92.818 49.379 93.437 48.945L93.54 48.873A1.37 1.37 0 0 0 93.876 46.966L92.65 45.215 94.723 45.581A1.37 1.37 0 0 0 96.309 44.471L96.33 44.348A1.363 1.363 0 0 0 95.223 42.765" fill="#ffffff" data-fill-palette-color="quaternary"></path></g></svg></g></svg></g><g></g></svg></g></svg></g></svg></g></svg></g><defs></defs></svg>